<svg width="24" height="24" viewBox="0 0 24 24" fill="none" xmlns="http://www.w3.org/2000/svg">
<path d="M12 24C8.64444 24 5.80556 23.4833 3.48333 22.45C1.16111 21.4167 0 20.1556 0 18.6667V5.33333C0 3.86667 1.17222 2.61111 3.51667 1.56667C5.86111 0.522222 8.68889 0 12 0C15.3111 0 18.1389 0.522222 20.4833 1.56667C22.8278 2.61111 24 3.86667 24 5.33333V18.6667C24 20.1556 22.8389 21.4167 20.5167 22.45C18.1944 23.4833 15.3556 24 12 24ZM12 8.03333C13.9778 8.03333 15.9667 7.75 17.9667 7.18333C19.9667 6.61667 21.0889 6.01111 21.3333 5.36667C21.0889 4.72222 19.9722 4.11111 17.9833 3.53333C15.9944 2.95556 14 2.66667 12 2.66667C9.97778 2.66667 7.99444 2.95 6.05 3.51667C4.10556 4.08333 2.97778 4.7 2.66667 5.36667C2.97778 6.03333 4.10556 6.64444 6.05 7.2C7.99444 7.75556 9.97778 8.03333 12 8.03333ZM12 14.6667C12.9333 14.6667 13.8333 14.6222 14.7 14.5333C15.5667 14.4444 16.3944 14.3167 17.1833 14.15C17.9722 13.9833 18.7167 13.7778 19.4167 13.5333C20.1167 13.2889 20.7556 13.0111 21.3333 12.7V8.7C20.7556 9.01111 20.1167 9.28889 19.4167 9.53333C18.7167 9.77778 17.9722 9.98333 17.1833 10.15C16.3944 10.3167 15.5667 10.4444 14.7 10.5333C13.8333 10.6222 12.9333 10.6667 12 10.6667C11.0667 10.6667 10.1556 10.6222 9.26667 10.5333C8.37778 10.4444 7.53889 10.3167 6.75 10.15C5.96111 9.98333 5.22222 9.77778 4.53333 9.53333C3.84444 9.28889 3.22222 9.01111 2.66667 8.7V12.7C3.22222 13.0111 3.84444 13.2889 4.53333 13.5333C5.22222 13.7778 5.96111 13.9833 6.75 14.15C7.53889 14.3167 8.37778 14.4444 9.26667 14.5333C10.1556 14.6222 11.0667 14.6667 12 14.6667ZM12 21.3333C13.0222 21.3333 14.0611 21.2556 15.1167 21.1C16.1722 20.9444 17.1444 20.7389 18.0333 20.4833C18.9222 20.2278 19.6667 19.9389 20.2667 19.6167C20.8667 19.2944 21.2222 18.9667 21.3333 18.6333V15.3667C20.7556 15.6778 20.1167 15.9556 19.4167 16.2C18.7167 16.4444 17.9722 16.65 17.1833 16.8167C16.3944 16.9833 15.5667 17.1111 14.7 17.2C13.8333 17.2889 12.9333 17.3333 12 17.3333C11.0667 17.3333 10.1556 17.2889 9.26667 17.2C8.37778 17.1111 7.53889 16.9833 6.75 16.8167C5.96111 16.65 5.22222 16.4444 4.53333 16.2C3.84444 15.9556 3.22222 15.6778 2.66667 15.3667V18.6667C2.77778 19 3.12778 19.3222 3.71667 19.6333C4.30556 19.9444 5.04444 20.2278 5.93333 20.4833C6.82222 20.7389 7.8 20.9444 8.86667 21.1C9.93333 21.2556 10.9778 21.3333 12 21.3333Z" fill="#9333EA"/>
</svg>
